<?xml version="1.0" encoding="UTF-8"?>
<svg xmlns="http://www.w3.org/2000/svg"
     xmlns:xlink="http://www.w3.org/1999/xlink"
     version="1.2"
     width="100mm" height="100mm" viewBox="0 0 100 100"
     stroke="none"
     fill="#000000"
     stroke-width="0.3"
     font-size="3.88"
>
<defs>
  <marker id="arrow" markerWidth="15" markerHeight="7" refX="5" refY="3.5" orient="auto" markerUnits="strokeWidth">
    <path d="M0,0 L15,3.5 L0,7 z" stroke="context-stroke" fill="context-stroke"/>
  </marker>
</defs>
<g stroke="#000000" stroke-width="0.5" id="img-060f0434-1">
  <g transform="translate(40,40)">
    <path fill="none" d="M-10,-10 L10,10 " class="primitive"/>
  </g>
  <g transform="translate(20,25)">
    <path fill="none" d="M-10,-5 L10,5 " class="primitive"/>
  </g>
  <g transform="translate(70,50)">
    <path fill="none" d="M-20,0 L20,0 " class="primitive"/>
  </g>
  <g transform="translate(30,60)">
    <path fill="none" d="M-20,10 L20,-10 " class="primitive"/>
  </g>
</g>
<g transform="translate(29.58,59.72)">
  <path d="M-1.25,-0.83 L2.21,-0.62 0.3,2.27 -1.25,-0.83  z" class="primitive"/>
</g>
<g transform="translate(69.75,49.57)">
  <path d="M-0.75,-1.3 L2.25,0.43 -0.75,2.17 -0.75,-1.3  z" class="primitive"/>
</g>
<g transform="translate(19.97,24.5)">
  <path d="M-0.09,-1.5 L1.82,1.39 -1.64,1.6 -0.09,-1.5  z" class="primitive"/>
</g>
<g transform="translate(40.13,39.52)">
  <path d="M0.39,-1.45 L1.28,1.9 -2.06,1 0.39,-1.45  z" class="primitive"/>
</g>
<g stroke="#000000" stroke-opacity="0.000" fill="#000000" id="img-060f0434-2">
  <g transform="translate(30,30)">
    <circle cx="0" cy="0" r="5" class="primitive"/>
  </g>
  <g transform="translate(50,50)">
    <circle cx="0" cy="0" r="5" class="primitive"/>
  </g>
</g>
<g font-family="monospace" font-size="4.4" id="img-060f0434-3">
  <g transform="translate(20,15)">
    <g class="primitive">
      <text text-anchor="middle" dy="-0.25em">x <tspan x="0" dy="1.1000em"> push(Σ,x)</tspan></text>
    </g>
  </g>
  <g transform="translate(55,36)">
    <g class="primitive">
      <text text-anchor="middle" dy="-0.25em">s = sin(x) <tspan x="0" dy="1.1000em"> push(Σ,s)</tspan></text>
    </g>
  </g>
  <g transform="translate(75,46)">
    <g class="primitive">
      <text text-anchor="middle" dy="0.35em">y = z*sin(x)</text>
    </g>
  </g>
  <g transform="translate(25,53)">
    <g class="primitive">
      <text text-anchor="middle" dy="-0.25em">z<tspan x="0" dy="1.1000em"> push(Σ,z)</tspan></text>
    </g>
  </g>
</g>
<g font-family="monospace" fill="#FFFFFF" font-size="5" id="img-060f0434-4">
  <g transform="translate(30,30)">
    <g class="primitive">
      <text text-anchor="middle" dy="0.35em">sin</text>
    </g>
  </g>
  <g transform="translate(50,51)">
    <g class="primitive">
      <text text-anchor="middle" dy="0.35em">*</text>
    </g>
  </g>
</g>
</svg>
