<?xml version="1.0" encoding="UTF-8"?>
<svg xmlns="http://www.w3.org/2000/svg"
     xmlns:xlink="http://www.w3.org/1999/xlink"
     version="1.2"
     width="100mm" height="100mm" viewBox="0 0 100 100"
     stroke="none"
     fill="#000000"
     stroke-width="0.3"
     font-size="3.88"
>
<defs>
  <marker id="arrow" markerWidth="15" markerHeight="7" refX="5" refY="3.5" orient="auto" markerUnits="strokeWidth">
    <path d="M0,0 L15,3.5 L0,7 z" stroke="context-stroke" fill="context-stroke"/>
  </marker>
</defs>
<g stroke="#000000" stroke-width="0.5" id="img-3a62a3fc-1">
  <g transform="translate(40,40)">
    <path fill="none" d="M10,10 L-10,-10 " class="primitive"/>
  </g>
  <g transform="translate(20,25)">
    <path fill="none" d="M10,5 L-10,-5 " class="primitive"/>
  </g>
  <g transform="translate(70,50)">
    <path fill="none" d="M20,0 L-20,0 " class="primitive"/>
  </g>
  <g transform="translate(30,60)">
    <path fill="none" d="M20,-10 L-20,10 " class="primitive"/>
  </g>
</g>
<g stroke="#000000" stroke-opacity="0.000" fill="#000000" id="img-3a62a3fc-2">
  <g transform="translate(30,30)">
    <circle cx="0" cy="0" r="5" class="primitive"/>
  </g>
  <g transform="translate(50,50)">
    <circle cx="0" cy="0" r="5" class="primitive"/>
  </g>
</g>
<g transform="translate(39.87,40.48)">
  <path d="M-0.39,1.45 L-1.28,-1.9 2.06,-1 -0.39,1.45  z" class="primitive"/>
</g>
<g transform="translate(20.03,25.5)">
  <path d="M0.09,1.5 L-1.82,-1.39 1.64,-1.6 0.09,1.5  z" class="primitive"/>
</g>
<g transform="translate(30.42,60.28)">
  <path d="M1.25,0.83 L-2.21,0.62 -0.3,-2.27 1.25,0.83  z" class="primitive"/>
</g>
<g transform="translate(70.25,50.43)">
  <path d="M0.75,1.3 L-2.25,-0.43 0.75,-2.17 0.75,1.3  z" class="primitive"/>
</g>
<g font-family="monospace" fill="#FFFFFF" font-size="5" id="img-3a62a3fc-3">
  <g transform="translate(30,30)">
    <g class="primitive">
      <text text-anchor="middle" dy="0.35em">sin</text>
    </g>
  </g>
  <g transform="translate(50,51)">
    <g class="primitive">
      <text text-anchor="middle" dy="0.35em">*</text>
    </g>
  </g>
</g>
<g font-family="monospace" font-size="4.4" id="img-3a62a3fc-4">
  <g transform="translate(20,15)">
    <g class="primitive">
      <text text-anchor="middle" dy="-0.25em">x = pop(Σ)<tspan x="0" dy="1.1000em">x̄ = cos(x)*s̄</tspan></text>
    </g>
  </g>
  <g transform="translate(52,36)">
    <g class="primitive">
      <text text-anchor="middle" dy="-0.25em">s = pop(Σ)<tspan x="0" dy="1.1000em">s̄ = z*ȳ</tspan></text>
    </g>
  </g>
  <g transform="translate(75,44)">
    <g class="primitive">
      <text text-anchor="middle" dy="-0.25em">y<tspan x="0" dy="1.1000em">ȳ=1</tspan></text>
    </g>
  </g>
  <g transform="translate(25,53)">
    <g class="primitive">
      <text text-anchor="middle" dy="-0.25em">z = pop(Σ)<tspan x="0" dy="1.1000em">z̄ = s*ȳ</tspan></text>
    </g>
  </g>
</g>
</svg>
