<?xml version="1.0" encoding="UTF-8"?>
<svg xmlns="http://www.w3.org/2000/svg"
     xmlns:xlink="http://www.w3.org/1999/xlink"
     version="1.2"
     width="85mm" height="75mm" viewBox="0 0 85 75"
     stroke="none"
     fill="#000000"
     stroke-width="0.3"
     font-size="3.88"
>
<defs>
  <marker id="arrow" markerWidth="15" markerHeight="7" refX="5" refY="3.5" orient="auto" markerUnits="strokeWidth">
    <path d="M0,0 L15,3.5 L0,7 z" stroke="context-stroke" fill="context-stroke"/>
  </marker>
</defs>
<g stroke-width="0.35" stroke="#000000" id="img-6d60bd62-1">
  <g transform="translate(67.56,57.75)">
    <path fill="none" d="M9.56,0 L-9.56,0 " class="primitive"/>
  </g>
</g>
<g stroke-width="0.35" stroke="#000000" id="img-6d60bd62-2">
  <g transform="translate(58,49.31)">
    <path fill="none" d="M0,8.44 L0,-8.44 " class="primitive"/>
  </g>
</g>
<g stroke-width="0.35" stroke="#000000" id="img-6d60bd62-3">
  <g transform="translate(29.31,7.12)">
    <path fill="none" d="M9.56,0 L-9.56,0 " class="primitive"/>
  </g>
</g>
<g stroke-width="0.35" stroke="#000000" id="img-6d60bd62-4">
  <g transform="translate(58,32.44)">
    <path fill="none" d="M0,8.44 L0,-8.44 " class="primitive"/>
  </g>
</g>
<g stroke-width="0.35" stroke="#000000" id="img-6d60bd62-5">
  <g transform="translate(29.31,24)">
    <path fill="none" d="M9.56,0 L-9.56,0 " class="primitive"/>
  </g>
</g>
<g stroke-width="0.35" stroke="#000000" id="img-6d60bd62-6">
  <g transform="translate(67.56,40.88)">
    <path fill="none" d="M9.56,0 L-9.56,0 " class="primitive"/>
  </g>
</g>
<g stroke-width="0.35" stroke="#000000" id="img-6d60bd62-7">
  <g transform="translate(67.56,24)">
    <path fill="none" d="M9.56,0 L-9.56,0 " class="primitive"/>
  </g>
</g>
<g stroke-width="0.35" stroke="#000000" id="img-6d60bd62-8">
  <g transform="translate(38.88,57.75)">
    <path fill="none" d="M19.12,0 L-19.12,0 " class="primitive"/>
  </g>
</g>
<g stroke-width="0.35" stroke="#000000" id="img-6d60bd62-9">
  <g transform="translate(48.44,24)">
    <path fill="none" d="M9.56,0 L-9.56,0 " class="primitive"/>
  </g>
</g>
<g stroke-width="0.35" stroke="#000000" id="img-6d60bd62-10">
  <g transform="translate(58,7.12)">
    <path fill="none" d="M19.12,0 L-19.12,0 " class="primitive"/>
  </g>
</g>
<g stroke-width="0.35" stroke="#000000" id="img-6d60bd62-11">
  <g transform="translate(38.88,40.88)">
    <path fill="none" d="M19.12,0 L-19.12,0 " class="primitive"/>
  </g>
</g>
<g stroke-width="0.35" stroke="#000000" id="img-6d60bd62-12">
  <g transform="translate(38.88,15.56)">
    <path fill="none" d="M0,8.44 L0,-8.44 " class="primitive"/>
  </g>
</g>
<g fill="#000000" id="img-6d60bd62-13">
  <g transform="translate(58,24)">
    <circle cx="0" cy="0" r="1.5" class="primitive"/>
  </g>
</g>
<g fill="#000000" id="img-6d60bd62-14">
  <g transform="translate(38.88,7.12)">
    <circle cx="0" cy="0" r="1.5" class="primitive"/>
  </g>
</g>
<g stroke-width="0.35" stroke="#000000" id="img-6d60bd62-15">
  <g transform="translate(38.88,24)">
    <path d="M0,-4.5 L0,4.5  z" class="primitive"/>
  </g>
</g>
<g stroke-width="0.35" stroke="#000000" id="img-6d60bd62-16">
  <g transform="translate(38.88,24)">
    <path d="M-4.5,0 L4.5,0  z" class="primitive"/>
  </g>
</g>
<g fill="#000000" fill-opacity="0.000" stroke-width="0.35" stroke="#000000" id="img-6d60bd62-17">
  <g transform="translate(38.88,24)">
    <circle cx="0" cy="0" r="4.5" class="primitive"/>
  </g>
</g>
<g stroke-width="0.35" stroke="#000000" id="img-6d60bd62-18">
  <g transform="translate(58,57.75)">
    <path d="M0,-4.5 L0,4.5  z" class="primitive"/>
  </g>
</g>
<g stroke-width="0.35" stroke="#000000" id="img-6d60bd62-19">
  <g transform="translate(58,57.75)">
    <path d="M-4.5,0 L4.5,0  z" class="primitive"/>
  </g>
</g>
<g fill="#000000" fill-opacity="0.000" stroke-width="0.35" stroke="#000000" id="img-6d60bd62-20">
  <g transform="translate(58,57.75)">
    <circle cx="0" cy="0" r="4.5" class="primitive"/>
  </g>
</g>
<g fill="#000000" id="img-6d60bd62-21">
  <g transform="translate(58,40.88)">
    <circle cx="0" cy="0" r="1.5" class="primitive"/>
  </g>
</g>
<g font-family="monospace" font-size="4.4" id="img-6d60bd62-22">
  <g transform="translate(15.3,3)">
    <g class="primitive">
      <text text-anchor="middle" dy="0.35em">x</text>
    </g>
  </g>
  <g transform="translate(15.3,20.25)">
    <g class="primitive">
      <text text-anchor="middle" dy="0.35em">0</text>
    </g>
  </g>
  <g transform="translate(15.3,37.5)">
    <g class="primitive">
      <text text-anchor="middle" dy="0.35em">z</text>
    </g>
  </g>
  <g transform="translate(15.3,54)">
    <g class="primitive">
      <text text-anchor="middle" dy="0.35em">0</text>
    </g>
  </g>
  <g transform="translate(72.25,20.25)">
    <g class="primitive">
      <text text-anchor="middle" dy="0.35em">s</text>
    </g>
  </g>
  <g transform="translate(72.25,3)">
    <g class="primitive">
      <text text-anchor="middle" dy="0.35em">x</text>
    </g>
  </g>
  <g transform="translate(72.25,37.5)">
    <g class="primitive">
      <text text-anchor="middle" dy="0.35em">z</text>
    </g>
  </g>
  <g transform="translate(72.25,54)">
    <g class="primitive">
      <text text-anchor="middle" dy="0.35em">y</text>
    </g>
  </g>
  <g transform="translate(38.25,66)">
    <g class="primitive">
      <text text-anchor="middle" dy="0.35em">sin</text>
    </g>
  </g>
  <g transform="translate(57.8,67.5)">
    <g class="primitive">
      <text text-anchor="middle" dy="0.35em">*</text>
    </g>
  </g>
</g>
</svg>
