<?xml version="1.0" encoding="iso-8859-1" standalone="no"?> 
<?xml-stylesheet href="tikzimg3.css" type="text/css"?> 
<svg xmlns="http://www.w3.org/2000/svg" xmlns:xlink="http://www.w3.org/1999/xlink" width="142.8637pt" height="72.93643pt" viewBox="25.4073 -50.6946 142.8637 72.93643 "> 
<g transform="translate(0,22.24184 ) scale(1,-1) translate(0,50.6946 )"> 
<g stroke="#000" fill="#000">
 <g stroke-width="0.4">
 <g stroke-width="0.8">
 <path d=" M 31.29819 2.84544 C 42.67911 14.22636 42.67911 14.22636 53.55798 3.34749  " fill="none"/>
 <g transform="matrix(0.7071,-0.7071,0.7071,0.7071,53.55797,3.3475)">
 <g stroke-width="0.64">
 <g stroke-dasharray="none" stroke-dashoffset="0.0">
 <g stroke-linecap="round">
 <g stroke-linejoin="round">
 <path d=" M -1.55997 2.07996 C -1.42996 1.29997 0.0 0.12999 0.38998 0.0 C 0.0 -0.12999 -1.42996 -1.29997 -1.55997 -2.07996  " fill="none"/>
 </g>
 </g>
 </g>
 </g>
  </g>
 <g transform="translate(40.1791,12.46443)">
 <g fill="#000">
 <text style="stroke:none" transform="scale(1,-1) translate(2.5,0)" text-anchor="middle"  font-size="10"> 
<g fill="#000">
 <g stroke="none"> 2</g> </g>
 </text> 
</g>
 </g>
 </g>
 <g stroke-width="0.8">
 <path d=" M 59.75093 2.84544 C 71.13185 14.22636 71.13185 14.22636 82.01073 3.34749  " fill="none"/>
 <g transform="matrix(0.7071,-0.7071,0.7071,0.7071,82.01071,3.3475)">
 <g stroke-width="0.64">
 <g stroke-dasharray="none" stroke-dashoffset="0.0">
 <g stroke-linecap="round">
 <g stroke-linejoin="round">
 <path d=" M -1.55997 2.07996 C -1.42996 1.29997 0.0 0.12999 0.38998 0.0 C 0.0 -0.12999 -1.42996 -1.29997 -1.55997 -2.07996  " fill="none"/>
 </g>
 </g>
 </g>
 </g>
  </g>
 <g transform="translate(68.63182,12.46443)">
 <g fill="#000">
 <text style="stroke:none" transform="scale(1,-1) translate(2.5,0)" text-anchor="middle"  font-size="10"> 
<g fill="#000">
 <g stroke="none"> 3</g> </g>
 </text> 
</g>
 </g>
 </g>
 <g stroke-width="0.8">
 <path d=" M 88.20367 2.84544 C 99.5846 14.22636 99.5846 14.22636 110.46347 3.34749  " fill="none"/>
 <g transform="matrix(0.7071,-0.7071,0.7071,0.7071,110.46346,3.3475)">
 <g stroke-width="0.64">
 <g stroke-dasharray="none" stroke-dashoffset="0.0">
 <g stroke-linecap="round">
 <g stroke-linejoin="round">
 <path d=" M -1.55997 2.07996 C -1.42996 1.29997 0.0 0.12999 0.38998 0.0 C 0.0 -0.12999 -1.42996 -1.29997 -1.55997 -2.07996  " fill="none"/>
 </g>
 </g>
 </g>
 </g>
  </g>
 <g transform="translate(97.08458,12.46443)">
 <g fill="#000">
 <text style="stroke:none" transform="scale(1,-1) translate(2.5,0)" text-anchor="middle"  font-size="10"> 
<g fill="#000">
 <g stroke="none"> 4</g> </g>
 </text> 
</g>
 </g>
 </g>
 <g stroke-width="0.8">
 <path d=" M 116.65642 2.84544 C 128.03734 14.22636 128.03734 14.22636 138.91621 3.34749  " fill="none"/>
 <g transform="matrix(0.7071,-0.7071,0.7071,0.7071,138.9162,3.3475)">
 <g stroke-width="0.64">
 <g stroke-dasharray="none" stroke-dashoffset="0.0">
 <g stroke-linecap="round">
 <g stroke-linejoin="round">
 <path d=" M -1.55997 2.07996 C -1.42996 1.29997 0.0 0.12999 0.38998 0.0 C 0.0 -0.12999 -1.42996 -1.29997 -1.55997 -2.07996  " fill="none"/>
 </g>
 </g>
 </g>
 </g>
  </g>
 <g transform="translate(125.53731,12.46443)">
 <g fill="#000">
 <text style="stroke:none" transform="scale(1,-1) translate(2.5,0)" text-anchor="middle"  font-size="10"> 
<g fill="#000">
 <g stroke="none"> 5</g> </g>
 </text> 
</g>
 </g>
 </g>
 <g fill="#000">
 <path d=" M 28.45274 0.0 M 31.29819 0.0 C 31.29819 1.5715 30.02425 2.84544 28.45274 2.84544 C 26.88124 2.84544 25.6073 1.5715 25.6073 0.0 C 25.6073 -1.5715 26.88124 -2.84544 28.45274 -2.84544 C 30.02425 -2.84544 31.29819 -1.5715 31.29819 0.0 Z M 28.45274 0.0  " />
 </g>
 <g fill="#000">
 <path d=" M 56.90549 0.0 M 59.75093 0.0 C 59.75093 1.5715 58.47699 2.84544 56.90549 2.84544 C 55.33398 2.84544 54.06004 1.5715 54.06004 0.0 C 54.06004 -1.5715 55.33398 -2.84544 56.90549 -2.84544 C 58.47699 -2.84544 59.75093 -1.5715 59.75093 0.0 Z M 56.90549 0.0  " />
 </g>
 <g fill="#000">
 <path d=" M 85.35823 0.0 M 88.20367 0.0 C 88.20367 1.5715 86.92973 2.84544 85.35823 2.84544 C 83.78673 2.84544 82.51279 1.5715 82.51279 0.0 C 82.51279 -1.5715 83.78673 -2.84544 85.35823 -2.84544 C 86.92973 -2.84544 88.20367 -1.5715 88.20367 0.0 Z M 85.35823 0.0  " />
 </g>
 <g fill="#000">
 <path d=" M 113.81097 0.0 M 116.65642 0.0 C 116.65642 1.5715 115.38248 2.84544 113.81097 2.84544 C 112.23947 2.84544 110.96553 1.5715 110.96553 0.0 C 110.96553 -1.5715 112.23947 -2.84544 113.81097 -2.84544 C 115.38248 -2.84544 116.65642 -1.5715 116.65642 0.0 Z M 113.81097 0.0  " />
 </g>
 <g fill="#000">
 <path d=" M 142.26372 0.0 M 145.10916 0.0 C 145.10916 1.5715 143.83522 2.84544 142.26372 2.84544 C 140.69221 2.84544 139.41827 1.5715 139.41827 0.0 C 139.41827 -1.5715 140.69221 -2.84544 142.26372 -2.84544 C 143.83522 -2.84544 145.10916 -1.5715 145.10916 0.0 Z M 142.26372 0.0  " />
 </g>
 <g fill="#000">
 <path d=" M 28.45274 -28.45274 M 31.29819 -28.45274 C 31.29819 -26.88124 30.02425 -25.6073 28.45274 -25.6073 C 26.88124 -25.6073 25.6073 -26.88124 25.6073 -28.45274 C 25.6073 -30.02425 26.88124 -31.29819 28.45274 -31.29819 C 30.02425 -31.29819 31.29819 -30.02425 31.29819 -28.45274 Z M 28.45274 -28.45274  " />
 </g>
 <g fill="#000">
 <path d=" M 56.90549 -28.45274 M 59.75093 -28.45274 C 59.75093 -26.88124 58.47699 -25.6073 56.90549 -25.6073 C 55.33398 -25.6073 54.06004 -26.88124 54.06004 -28.45274 C 54.06004 -30.02425 55.33398 -31.29819 56.90549 -31.29819 C 58.47699 -31.29819 59.75093 -30.02425 59.75093 -28.45274 Z M 56.90549 -28.45274  " />
 </g>
 <g fill="#000">
 <path d=" M 85.35823 -28.45274 M 88.20367 -28.45274 C 88.20367 -26.88124 86.92973 -25.6073 85.35823 -25.6073 C 83.78673 -25.6073 82.51279 -26.88124 82.51279 -28.45274 C 82.51279 -30.02425 83.78673 -31.29819 85.35823 -31.29819 C 86.92973 -31.29819 88.20367 -30.02425 88.20367 -28.45274 Z M 85.35823 -28.45274  " />
 </g>
 <g fill="#000">
 <path d=" M 113.81097 -28.45274 M 116.65642 -28.45274 C 116.65642 -26.88124 115.38248 -25.6073 113.81097 -25.6073 C 112.23947 -25.6073 110.96553 -26.88124 110.96553 -28.45274 C 110.96553 -30.02425 112.23947 -31.29819 113.81097 -31.29819 C 115.38248 -31.29819 116.65642 -30.02425 116.65642 -28.45274 Z M 113.81097 -28.45274  " />
 </g>
 <g fill="#000">
 <path d=" M 142.26372 -28.45274 M 145.10916 -28.45274 C 145.10916 -26.88124 143.83522 -25.6073 142.26372 -25.6073 C 140.69221 -25.6073 139.41827 -26.88124 139.41827 -28.45274 C 139.41827 -30.02425 140.69221 -31.29819 142.26372 -31.29819 C 143.83522 -31.29819 145.10916 -30.02425 145.10916 -28.45274 Z M 142.26372 -28.45274  " />
 </g>
 <g stroke="#f00" fill="#f00">
 <g stroke-width="0.8">
 <path d=" M 31.80023 -31.80023 C 42.67911 -42.67911 42.67911 -42.67911 54.06003 -31.29819  " fill="none"/>
 <g transform="matrix(-0.7071,0.7071,-0.7071,-0.7071,31.80025,-31.80025)">
 <g stroke-width="0.64">
 <g stroke-dasharray="none" stroke-dashoffset="0.0">
 <g stroke-linecap="round">
 <g stroke-linejoin="round">
 <path d=" M -1.55997 2.07996 C -1.42996 1.29997 0.0 0.12999 0.38998 0.0 C 0.0 -0.12999 -1.42996 -1.29997 -1.55997 -2.07996  " fill="none"/>
 </g>
 </g>
 </g>
 </g>
  </g>
 <g transform="translate(40.1791,-47.36162)">
 <g fill="#f00">
 <text style="stroke:none" transform="scale(1,-1) translate(2.5,0)" text-anchor="middle"  font-size="10"> 
<g fill="#f00">
 <g stroke="none"> 5</g> </g>
 </text> 
</g>
 </g>
 </g>
 </g>
 <g stroke="#f00" fill="#f00">
 <g stroke-width="0.8">
 <path d=" M 60.25298 -31.80023 C 71.13185 -42.67911 71.13185 -42.67911 82.51277 -31.29819  " fill="none"/>
 <g transform="matrix(-0.7071,0.7071,-0.7071,-0.7071,60.25299,-31.80025)">
 <g stroke-width="0.64">
 <g stroke-dasharray="none" stroke-dashoffset="0.0">
 <g stroke-linecap="round">
 <g stroke-linejoin="round">
 <path d=" M -1.55997 2.07996 C -1.42996 1.29997 0.0 0.12999 0.38998 0.0 C 0.0 -0.12999 -1.42996 -1.29997 -1.55997 -2.07996  " fill="none"/>
 </g>
 </g>
 </g>
 </g>
  </g>
 <g transform="translate(68.63182,-47.36162)">
 <g fill="#f00">
 <text style="stroke:none" transform="scale(1,-1) translate(2.5,0)" text-anchor="middle"  font-size="10"> 
<g fill="#f00">
 <g stroke="none"> 4</g> </g>
 </text> 
</g>
 </g>
 </g>
 </g>
 <g stroke="#f00" fill="#f00">
 <g stroke-width="0.8">
 <path d=" M 88.70572 -31.80023 C 99.5846 -42.67911 99.5846 -42.67911 110.96552 -31.29819  " fill="none"/>
 <g transform="matrix(-0.7071,0.7071,-0.7071,-0.7071,88.70573,-31.80025)">
 <g stroke-width="0.64">
 <g stroke-dasharray="none" stroke-dashoffset="0.0">
 <g stroke-linecap="round">
 <g stroke-linejoin="round">
 <path d=" M -1.55997 2.07996 C -1.42996 1.29997 0.0 0.12999 0.38998 0.0 C 0.0 -0.12999 -1.42996 -1.29997 -1.55997 -2.07996  " fill="none"/>
 </g>
 </g>
 </g>
 </g>
  </g>
 <g transform="translate(97.08458,-47.36162)">
 <g fill="#f00">
 <text style="stroke:none" transform="scale(1,-1) translate(2.5,0)" text-anchor="middle"  font-size="10"> 
<g fill="#f00">
 <g stroke="none"> 3</g> </g>
 </text> 
</g>
 </g>
 </g>
 </g>
 <g stroke="#f00" fill="#f00">
 <g stroke-width="0.8">
 <path d=" M 117.15846 -31.80023 C 128.03734 -42.67911 128.03734 -42.67911 139.41826 -31.29819  " fill="none"/>
 <g transform="matrix(-0.7071,0.7071,-0.7071,-0.7071,117.15848,-31.80025)">
 <g stroke-width="0.64">
 <g stroke-dasharray="none" stroke-dashoffset="0.0">
 <g stroke-linecap="round">
 <g stroke-linejoin="round">
 <path d=" M -1.55997 2.07996 C -1.42996 1.29997 0.0 0.12999 0.38998 0.0 C 0.0 -0.12999 -1.42996 -1.29997 -1.55997 -2.07996  " fill="none"/>
 </g>
 </g>
 </g>
 </g>
  </g>
 <g transform="translate(125.53731,-47.36162)">
 <g fill="#f00">
 <text style="stroke:none" transform="scale(1,-1) translate(2.5,0)" text-anchor="middle"  font-size="10"> 
<g fill="#f00">
 <g stroke="none"> 1</g> </g>
 </text> 
</g>
 </g>
 </g>
 </g>
 <g stroke="#f00" fill="#f00">
 <g stroke-width="0.8">
 <path d=" M 145.6112 -31.80023 C 156.49008 -42.67911 156.49008 -42.67911 167.871 -31.29819  " fill="none"/>
 <g transform="matrix(-0.7071,0.7071,-0.7071,-0.7071,145.61122,-31.80025)">
 <g stroke-width="0.64">
 <g stroke-dasharray="none" stroke-dashoffset="0.0">
 <g stroke-linecap="round">
 <g stroke-linejoin="round">
 <path d=" M -1.55997 2.07996 C -1.42996 1.29997 0.0 0.12999 0.38998 0.0 C 0.0 -0.12999 -1.42996 -1.29997 -1.55997 -2.07996  " fill="none"/>
 </g>
 </g>
 </g>
 </g>
  </g>
 <g transform="translate(153.99007,-47.36162)">
 <g fill="#f00">
 <text style="stroke:none" transform="scale(1,-1) translate(2.5,0)" text-anchor="middle"  font-size="10"> 
<g fill="#f00">
 <g stroke="none"> 1</g> </g>
 </text> 
</g>
 </g>
 </g>
 </g>
 </g>
 </g>
 
                           </g> 
</svg> 
