<?xml version="1.0" encoding="iso-8859-1" standalone="no"?> 
<?xml-stylesheet href="tikzimg.css" type="text/css"?> 
<svg xmlns="http://www.w3.org/2000/svg" xmlns:xlink="http://www.w3.org/1999/xlink" width="347.5238pt" height="124.46895pt" viewBox="-3.04544 -102.22711 347.5238 124.46895 "> 
<g transform="translate(0,22.24184 ) scale(1,-1) translate(0,102.22711 )"> 
<g stroke="#000" fill="#000">
 <g stroke-width="0.4">
 <g stroke-width="0.8">
 <path d=" M 2.84544 2.84544 C 14.22636 14.22636 14.22636 14.22636 25.10524 3.34749  " fill="none"/>
 <g transform="matrix(0.7071,-0.7071,0.7071,0.7071,25.10522,3.3475)">
 <g stroke-width="0.64">
 <g stroke-dasharray="none" stroke-dashoffset="0.0">
 <g stroke-linecap="round">
 <g stroke-linejoin="round">
 <path d=" M -1.55997 2.07996 C -1.42996 1.29997 0.0 0.12999 0.38998 0.0 C 0.0 -0.12999 -1.42996 -1.29997 -1.55997 -2.07996  " fill="none"/>
 </g>
 </g>
 </g>
 </g>
  </g>
 <g transform="translate(11.72633,12.46443)">
 <g fill="#000">
 <text style="stroke:none" transform="scale(1,-1) translate(2.5,0)" text-anchor="middle"  font-size="10"> 
<g fill="#000">
 <g stroke="none"> 1</g> </g>
 </text> 
</g>
 </g>
 </g>
 <g stroke-width="0.8">
 <path d=" M 31.29819 2.84544 C 42.67911 14.22636 42.67911 14.22636 53.55798 3.34749  " fill="none"/>
 <g transform="matrix(0.7071,-0.7071,0.7071,0.7071,53.55797,3.3475)">
 <g stroke-width="0.64">
 <g stroke-dasharray="none" stroke-dashoffset="0.0">
 <g stroke-linecap="round">
 <g stroke-linejoin="round">
 <path d=" M -1.55997 2.07996 C -1.42996 1.29997 0.0 0.12999 0.38998 0.0 C 0.0 -0.12999 -1.42996 -1.29997 -1.55997 -2.07996  " fill="none"/>
 </g>
 </g>
 </g>
 </g>
  </g>
 <g transform="translate(40.1791,12.46443)">
 <g fill="#000">
 <text style="stroke:none" transform="scale(1,-1) translate(2.5,0)" text-anchor="middle"  font-size="10"> 
<g fill="#000">
 <g stroke="none"> 2</g> </g>
 </text> 
</g>
 </g>
 </g>
 <g stroke-width="0.8">
 <path d=" M 59.75093 2.84544 C 71.13185 14.22636 71.13185 14.22636 82.01073 3.34749  " fill="none"/>
 <g transform="matrix(0.7071,-0.7071,0.7071,0.7071,82.01071,3.3475)">
 <g stroke-width="0.64">
 <g stroke-dasharray="none" stroke-dashoffset="0.0">
 <g stroke-linecap="round">
 <g stroke-linejoin="round">
 <path d=" M -1.55997 2.07996 C -1.42996 1.29997 0.0 0.12999 0.38998 0.0 C 0.0 -0.12999 -1.42996 -1.29997 -1.55997 -2.07996  " fill="none"/>
 </g>
 </g>
 </g>
 </g>
  </g>
 <g transform="translate(68.63182,12.46443)">
 <g fill="#000">
 <text style="stroke:none" transform="scale(1,-1) translate(2.5,0)" text-anchor="middle"  font-size="10"> 
<g fill="#000">
 <g stroke="none"> 3</g> </g>
 </text> 
</g>
 </g>
 </g>
 <g stroke-width="0.8">
 <path d=" M 88.20367 2.84544 C 99.5846 14.22636 99.5846 14.22636 110.46347 3.34749  " fill="none"/>
 <g transform="matrix(0.7071,-0.7071,0.7071,0.7071,110.46346,3.3475)">
 <g stroke-width="0.64">
 <g stroke-dasharray="none" stroke-dashoffset="0.0">
 <g stroke-linecap="round">
 <g stroke-linejoin="round">
 <path d=" M -1.55997 2.07996 C -1.42996 1.29997 0.0 0.12999 0.38998 0.0 C 0.0 -0.12999 -1.42996 -1.29997 -1.55997 -2.07996  " fill="none"/>
 </g>
 </g>
 </g>
 </g>
  </g>
 <g transform="translate(97.08458,12.46443)">
 <g fill="#000">
 <text style="stroke:none" transform="scale(1,-1) translate(2.5,0)" text-anchor="middle"  font-size="10"> 
<g fill="#000">
 <g stroke="none"> 4</g> </g>
 </text> 
</g>
 </g>
 </g>
 <g stroke-width="0.8">
 <path d=" M 116.65642 2.84544 C 128.03734 14.22636 128.03734 14.22636 138.91621 3.34749  " fill="none"/>
 <g transform="matrix(0.7071,-0.7071,0.7071,0.7071,138.9162,3.3475)">
 <g stroke-width="0.64">
 <g stroke-dasharray="none" stroke-dashoffset="0.0">
 <g stroke-linecap="round">
 <g stroke-linejoin="round">
 <path d=" M -1.55997 2.07996 C -1.42996 1.29997 0.0 0.12999 0.38998 0.0 C 0.0 -0.12999 -1.42996 -1.29997 -1.55997 -2.07996  " fill="none"/>
 </g>
 </g>
 </g>
 </g>
  </g>
 <g transform="translate(125.53731,12.46443)">
 <g fill="#000">
 <text style="stroke:none" transform="scale(1,-1) translate(2.5,0)" text-anchor="middle"  font-size="10"> 
<g fill="#000">
 <g stroke="none"> 5</g> </g>
 </text> 
</g>
 </g>
 </g>
 <g fill="#fff">
 <path d=" M 85.35823 0.0 M 88.20367 0.0 C 88.20367 1.5715 86.92973 2.84544 85.35823 2.84544 C 83.78673 2.84544 82.51279 1.5715 82.51279 0.0 C 82.51279 -1.5715 83.78673 -2.84544 85.35823 -2.84544 C 86.92973 -2.84544 88.20367 -1.5715 88.20367 0.0 Z M 85.35823 0.0  " />
 </g>
 <g fill="#000">
 <path d=" M 0.0 0.0 M 2.84544 0.0 C 2.84544 1.5715 1.5715 2.84544 0.0 2.84544 C -1.5715 2.84544 -2.84544 1.5715 -2.84544 0.0 C -2.84544 -1.5715 -1.5715 -2.84544 0.0 -2.84544 C 1.5715 -2.84544 2.84544 -1.5715 2.84544 0.0 Z M 0.0 0.0  " />
 </g>
 <g fill="#000">
 <path d=" M 28.45274 0.0 M 31.29819 0.0 C 31.29819 1.5715 30.02425 2.84544 28.45274 2.84544 C 26.88124 2.84544 25.6073 1.5715 25.6073 0.0 C 25.6073 -1.5715 26.88124 -2.84544 28.45274 -2.84544 C 30.02425 -2.84544 31.29819 -1.5715 31.29819 0.0 Z M 28.45274 0.0  " />
 </g>
 <g fill="#000">
 <path d=" M 56.90549 0.0 M 59.75093 0.0 C 59.75093 1.5715 58.47699 2.84544 56.90549 2.84544 C 55.33398 2.84544 54.06004 1.5715 54.06004 0.0 C 54.06004 -1.5715 55.33398 -2.84544 56.90549 -2.84544 C 58.47699 -2.84544 59.75093 -1.5715 59.75093 0.0 Z M 56.90549 0.0  " />
 </g>
 <g fill="#000">
 <path d=" M 113.81097 0.0 M 116.65642 0.0 C 116.65642 1.5715 115.38248 2.84544 113.81097 2.84544 C 112.23947 2.84544 110.96553 1.5715 110.96553 0.0 C 110.96553 -1.5715 112.23947 -2.84544 113.81097 -2.84544 C 115.38248 -2.84544 116.65642 -1.5715 116.65642 0.0 Z M 113.81097 0.0  " />
 </g>
 <g fill="#000">
 <path d=" M 142.26372 0.0 M 145.10916 0.0 C 145.10916 1.5715 143.83522 2.84544 142.26372 2.84544 C 140.69221 2.84544 139.41827 1.5715 139.41827 0.0 C 139.41827 -1.5715 140.69221 -2.84544 142.26372 -2.84544 C 143.83522 -2.84544 145.10916 -1.5715 145.10916 0.0 Z M 142.26372 0.0  " />
 </g>
 <g stroke="#f00" fill="#f00">
 <g stroke-width="0.8">
 <path d=" M 3.34749 -60.25298 C 14.22636 -71.13185 14.22636 -71.13185 25.60728 -59.75093  " fill="none"/>
 <g transform="matrix(-0.7071,0.7071,-0.7071,-0.7071,3.3475,-60.25299)">
 <g stroke-width="0.64">
 <g stroke-dasharray="none" stroke-dashoffset="0.0">
 <g stroke-linecap="round">
 <g stroke-linejoin="round">
 <path d=" M -1.55997 2.07996 C -1.42996 1.29997 0.0 0.12999 0.38998 0.0 C 0.0 -0.12999 -1.42996 -1.29997 -1.55997 -2.07996  " fill="none"/>
 </g>
 </g>
 </g>
 </g>
  </g>
 <g transform="translate(11.72633,-75.81435)">
 <g fill="#f00">
 <text style="stroke:none" transform="scale(1,-1) translate(2.5,0)" text-anchor="middle"  font-size="10"> 
<g fill="#f00">
 <g stroke="none"> 6</g> </g>
 </text> 
</g>
 </g>
 </g>
 </g>
 <g stroke="#f00" fill="#f00">
 <g stroke-width="0.8">
 <path d=" M 31.80023 -60.25298 C 42.67911 -71.13185 42.67911 -71.13185 54.06003 -59.75093  " fill="none"/>
 <g transform="matrix(-0.7071,0.7071,-0.7071,-0.7071,31.80025,-60.25299)">
 <g stroke-width="0.64">
 <g stroke-dasharray="none" stroke-dashoffset="0.0">
 <g stroke-linecap="round">
 <g stroke-linejoin="round">
 <path d=" M -1.55997 2.07996 C -1.42996 1.29997 0.0 0.12999 0.38998 0.0 C 0.0 -0.12999 -1.42996 -1.29997 -1.55997 -2.07996  " fill="none"/>
 </g>
 </g>
 </g>
 </g>
  </g>
 <g transform="translate(40.1791,-75.81435)">
 <g fill="#f00">
 <text style="stroke:none" transform="scale(1,-1) translate(2.5,0)" text-anchor="middle"  font-size="10"> 
<g fill="#f00">
 <g stroke="none"> 5</g> </g>
 </text> 
</g>
 </g>
 </g>
 </g>
 <g stroke="#f00" fill="#f00">
 <g stroke-width="0.8">
 <path d=" M 60.25298 -60.25298 C 71.13185 -71.13185 71.13185 -71.13185 82.51277 -59.75093  " fill="none"/>
 <g transform="matrix(-0.7071,0.7071,-0.7071,-0.7071,60.25299,-60.25299)">
 <g stroke-width="0.64">
 <g stroke-dasharray="none" stroke-dashoffset="0.0">
 <g stroke-linecap="round">
 <g stroke-linejoin="round">
 <path d=" M -1.55997 2.07996 C -1.42996 1.29997 0.0 0.12999 0.38998 0.0 C 0.0 -0.12999 -1.42996 -1.29997 -1.55997 -2.07996  " fill="none"/>
 </g>
 </g>
 </g>
 </g>
  </g>
 <g transform="translate(68.63182,-75.81435)">
 <g fill="#f00">
 <text style="stroke:none" transform="scale(1,-1) translate(2.5,0)" text-anchor="middle"  font-size="10"> 
<g fill="#f00">
 <g stroke="none"> 4</g> </g>
 </text> 
</g>
 </g>
 </g>
 </g>
 <g stroke="#f00" fill="#f00">
 <g stroke-width="0.8">
 <path d=" M 88.70572 -60.25298 C 99.5846 -71.13185 99.5846 -71.13185 110.96552 -59.75093  " fill="none"/>
 <g transform="matrix(-0.7071,0.7071,-0.7071,-0.7071,88.70573,-60.25299)">
 <g stroke-width="0.64">
 <g stroke-dasharray="none" stroke-dashoffset="0.0">
 <g stroke-linecap="round">
 <g stroke-linejoin="round">
 <path d=" M -1.55997 2.07996 C -1.42996 1.29997 0.0 0.12999 0.38998 0.0 C 0.0 -0.12999 -1.42996 -1.29997 -1.55997 -2.07996  " fill="none"/>
 </g>
 </g>
 </g>
 </g>
  </g>
 <g transform="translate(97.08458,-75.81435)">
 <g fill="#f00">
 <text style="stroke:none" transform="scale(1,-1) translate(2.5,0)" text-anchor="middle"  font-size="10"> 
<g fill="#f00">
 <g stroke="none"> 3</g> </g>
 </text> 
</g>
 </g>
 </g>
 </g>
 <g stroke="#f00" fill="#f00">
 <g stroke-width="0.8">
 <path d=" M 117.15846 -60.25298 C 128.03734 -71.13185 128.03734 -71.13185 139.41826 -59.75093  " fill="none"/>
 <g transform="matrix(-0.7071,0.7071,-0.7071,-0.7071,117.15848,-60.25299)">
 <g stroke-width="0.64">
 <g stroke-dasharray="none" stroke-dashoffset="0.0">
 <g stroke-linecap="round">
 <g stroke-linejoin="round">
 <path d=" M -1.55997 2.07996 C -1.42996 1.29997 0.0 0.12999 0.38998 0.0 C 0.0 -0.12999 -1.42996 -1.29997 -1.55997 -2.07996  " fill="none"/>
 </g>
 </g>
 </g>
 </g>
  </g>
 <g transform="translate(125.53731,-75.81435)">
 <g fill="#f00">
 <text style="stroke:none" transform="scale(1,-1) translate(2.5,0)" text-anchor="middle"  font-size="10"> 
<g fill="#f00">
 <g stroke="none"> 1</g> </g>
 </text> 
</g>
 </g>
 </g>
 </g>
 <g stroke-width="0.8">
 <path d=" M 59.75093 -54.06003 C 71.13185 -42.67911 71.13185 -42.67911 82.01073 -53.55798  " fill="none"/>
 <g transform="matrix(0.7071,-0.7071,0.7071,0.7071,82.01071,-53.55797)">
 <g stroke-width="0.64">
 <g stroke-dasharray="none" stroke-dashoffset="0.0">
 <g stroke-linecap="round">
 <g stroke-linejoin="round">
 <path d=" M -1.55997 2.07996 C -1.42996 1.29997 0.0 0.12999 0.38998 0.0 C 0.0 -0.12999 -1.42996 -1.29997 -1.55997 -2.07996  " fill="none"/>
 </g>
 </g>
 </g>
 </g>
  </g>
 <g transform="translate(68.63182,-44.441)">
 <g fill="#000">
 <text style="stroke:none" transform="scale(1,-1) translate(2.5,0)" text-anchor="middle"  font-size="10"> 
<g fill="#000">
 <g stroke="none"> 2</g> </g>
 </text> 
</g>
 </g>
 </g>
 <g fill="#fff">
 <path d=" M 85.35823 -56.90549 M 88.20367 -56.90549 C 88.20367 -55.33398 86.92973 -54.06004 85.35823 -54.06004 C 83.78673 -54.06004 82.51279 -55.33398 82.51279 -56.90549 C 82.51279 -58.47699 83.78673 -59.75093 85.35823 -59.75093 C 86.92973 -59.75093 88.20367 -58.47699 88.20367 -56.90549 Z M 85.35823 -56.90549  " />
 </g>
 <g fill="#000">
 <path d=" M 0.0 -56.90549 M 2.84544 -56.90549 C 2.84544 -55.33398 1.5715 -54.06004 0.0 -54.06004 C -1.5715 -54.06004 -2.84544 -55.33398 -2.84544 -56.90549 C -2.84544 -58.47699 -1.5715 -59.75093 0.0 -59.75093 C 1.5715 -59.75093 2.84544 -58.47699 2.84544 -56.90549 Z M 0.0 -56.90549  " />
 </g>
 <g fill="#000">
 <path d=" M 28.45274 -56.90549 M 31.29819 -56.90549 C 31.29819 -55.33398 30.02425 -54.06004 28.45274 -54.06004 C 26.88124 -54.06004 25.6073 -55.33398 25.6073 -56.90549 C 25.6073 -58.47699 26.88124 -59.75093 28.45274 -59.75093 C 30.02425 -59.75093 31.29819 -58.47699 31.29819 -56.90549 Z M 28.45274 -56.90549  " />
 </g>
 <g fill="#000">
 <path d=" M 56.90549 -56.90549 M 59.75093 -56.90549 C 59.75093 -55.33398 58.47699 -54.06004 56.90549 -54.06004 C 55.33398 -54.06004 54.06004 -55.33398 54.06004 -56.90549 C 54.06004 -58.47699 55.33398 -59.75093 56.90549 -59.75093 C 58.47699 -59.75093 59.75093 -58.47699 59.75093 -56.90549 Z M 56.90549 -56.90549  " />
 </g>
 <g fill="#000">
 <path d=" M 113.81097 -56.90549 M 116.65642 -56.90549 C 116.65642 -55.33398 115.38248 -54.06004 113.81097 -54.06004 C 112.23947 -54.06004 110.96553 -55.33398 110.96553 -56.90549 C 110.96553 -58.47699 112.23947 -59.75093 113.81097 -59.75093 C 115.38248 -59.75093 116.65642 -58.47699 116.65642 -56.90549 Z M 113.81097 -56.90549  " />
 </g>
 <g fill="#000">
 <path d=" M 142.26372 -56.90549 M 145.10916 -56.90549 C 145.10916 -55.33398 143.83522 -54.06004 142.26372 -54.06004 C 140.69221 -54.06004 139.41827 -55.33398 139.41827 -56.90549 C 139.41827 -58.47699 140.69221 -59.75093 142.26372 -59.75093 C 143.83522 -59.75093 145.10916 -58.47699 145.10916 -56.90549 Z M 142.26372 -56.90549  " />
 </g>
 <path d=" M 71.13185 -93.89413  " fill="none"/>
 <g transform="translate(64.74295,-96.39413)">
 <g fill="#000">
 <text style="stroke:none" transform="scale(1,-1) translate(6.3889,0)" text-anchor="middle"  font-size="10"> 
<g fill="#000">
 <g stroke="none"> (a)</g> </g>
 </text> 
</g>
 </g>
 <g stroke-width="0.8">
 <path d=" M 202.01465 2.84544 C 213.39557 14.22636 213.39557 14.22636 224.27444 3.34749  " fill="none"/>
 <g transform="matrix(0.7071,-0.7071,0.7071,0.7071,224.27443,3.3475)">
 <g stroke-width="0.64">
 <g stroke-dasharray="none" stroke-dashoffset="0.0">
 <g stroke-linecap="round">
 <g stroke-linejoin="round">
 <path d=" M -1.55997 2.07996 C -1.42996 1.29997 0.0 0.12999 0.38998 0.0 C 0.0 -0.12999 -1.42996 -1.29997 -1.55997 -2.07996  " fill="none"/>
 </g>
 </g>
 </g>
 </g>
  </g>
 <g transform="translate(210.89555,12.46443)">
 <g fill="#000">
 <text style="stroke:none" transform="scale(1,-1) translate(2.5,0)" text-anchor="middle"  font-size="10"> 
<g fill="#000">
 <g stroke="none"> 1</g> </g>
 </text> 
</g>
 </g>
 </g>
 <g stroke-width="0.8">
 <path d=" M 230.46739 2.84544 C 241.84831 14.22636 241.84831 14.22636 252.72719 3.34749  " fill="none"/>
 <g transform="matrix(0.7071,-0.7071,0.7071,0.7071,252.72717,3.3475)">
 <g stroke-width="0.64">
 <g stroke-dasharray="none" stroke-dashoffset="0.0">
 <g stroke-linecap="round">
 <g stroke-linejoin="round">
 <path d=" M -1.55997 2.07996 C -1.42996 1.29997 0.0 0.12999 0.38998 0.0 C 0.0 -0.12999 -1.42996 -1.29997 -1.55997 -2.07996  " fill="none"/>
 </g>
 </g>
 </g>
 </g>
  </g>
 <g transform="translate(239.34828,12.46443)">
 <g fill="#000">
 <text style="stroke:none" transform="scale(1,-1) translate(2.5,0)" text-anchor="middle"  font-size="10"> 
<g fill="#000">
 <g stroke="none"> 2</g> </g>
 </text> 
</g>
 </g>
 </g>
 <g stroke-width="0.8">
 <path d=" M 258.92014 2.84544 C 270.30106 14.22636 270.30106 14.22636 281.17993 3.34749  " fill="none"/>
 <g transform="matrix(0.7071,-0.7071,0.7071,0.7071,281.17992,3.3475)">
 <g stroke-width="0.64">
 <g stroke-dasharray="none" stroke-dashoffset="0.0">
 <g stroke-linecap="round">
 <g stroke-linejoin="round">
 <path d=" M -1.55997 2.07996 C -1.42996 1.29997 0.0 0.12999 0.38998 0.0 C 0.0 -0.12999 -1.42996 -1.29997 -1.55997 -2.07996  " fill="none"/>
 </g>
 </g>
 </g>
 </g>
  </g>
 <g transform="translate(267.80104,12.46443)">
 <g fill="#000">
 <text style="stroke:none" transform="scale(1,-1) translate(2.5,0)" text-anchor="middle"  font-size="10"> 
<g fill="#000">
 <g stroke="none"> 3</g> </g>
 </text> 
</g>
 </g>
 </g>
 <g stroke-width="0.8">
 <path d=" M 287.37288 2.84544 C 298.7538 14.22636 298.7538 14.22636 309.63268 3.34749  " fill="none"/>
 <g transform="matrix(0.7071,-0.7071,0.7071,0.7071,309.63266,3.3475)">
 <g stroke-width="0.64">
 <g stroke-dasharray="none" stroke-dashoffset="0.0">
 <g stroke-linecap="round">
 <g stroke-linejoin="round">
 <path d=" M -1.55997 2.07996 C -1.42996 1.29997 0.0 0.12999 0.38998 0.0 C 0.0 -0.12999 -1.42996 -1.29997 -1.55997 -2.07996  " fill="none"/>
 </g>
 </g>
 </g>
 </g>
  </g>
 <g transform="translate(296.25377,12.46443)">
 <g fill="#000">
 <text style="stroke:none" transform="scale(1,-1) translate(2.5,0)" text-anchor="middle"  font-size="10"> 
<g fill="#000">
 <g stroke="none"> 4</g> </g>
 </text> 
</g>
 </g>
 </g>
 <g stroke-width="0.8">
 <path d=" M 315.82562 2.84544 C 327.20654 14.22636 327.20654 14.22636 338.08542 3.34749  " fill="none"/>
 <g transform="matrix(0.7071,-0.7071,0.7071,0.7071,338.0854,3.3475)">
 <g stroke-width="0.64">
 <g stroke-dasharray="none" stroke-dashoffset="0.0">
 <g stroke-linecap="round">
 <g stroke-linejoin="round">
 <path d=" M -1.55997 2.07996 C -1.42996 1.29997 0.0 0.12999 0.38998 0.0 C 0.0 -0.12999 -1.42996 -1.29997 -1.55997 -2.07996  " fill="none"/>
 </g>
 </g>
 </g>
 </g>
  </g>
 <g transform="translate(324.70653,12.46443)">
 <g fill="#000">
 <text style="stroke:none" transform="scale(1,-1) translate(2.5,0)" text-anchor="middle"  font-size="10"> 
<g fill="#000">
 <g stroke="none"> 6</g> </g>
 </text> 
</g>
 </g>
 </g>
 <g stroke-width="0.8">
 <path d=" M 259.42218 -3.34749 C 270.30106 -14.22636 270.30106 -14.22636 281.68198 -2.84544  " fill="none"/>
 <g transform="matrix(-0.7071,0.7071,-0.7071,-0.7071,259.4222,-3.3475)">
 <g stroke-width="0.64">
 <g stroke-dasharray="none" stroke-dashoffset="0.0">
 <g stroke-linecap="round">
 <g stroke-linejoin="round">
 <path d=" M -1.55997 2.07996 C -1.42996 1.29997 0.0 0.12999 0.38998 0.0 C 0.0 -0.12999 -1.42996 -1.29997 -1.55997 -2.07996  " fill="none"/>
 </g>
 </g>
 </g>
 </g>
  </g>
 <g transform="translate(267.80104,-18.90886)">
 <g fill="#000">
 <text style="stroke:none" transform="scale(1,-1) translate(2.5,0)" text-anchor="middle"  font-size="10"> 
<g fill="#000">
 <g stroke="none"> 5</g> </g>
 </text> 
</g>
 </g>
 </g>
 <g fill="#fff">
 <path d=" M 284.52744 0.0 M 287.37288 0.0 C 287.37288 1.5715 286.09894 2.84544 284.52744 2.84544 C 282.95593 2.84544 281.68199 1.5715 281.68199 0.0 C 281.68199 -1.5715 282.95593 -2.84544 284.52744 -2.84544 C 286.09894 -2.84544 287.37288 -1.5715 287.37288 0.0 Z M 284.52744 0.0  " />
 </g>
 <g fill="#000">
 <path d=" M 199.1692 0.0 M 202.01465 0.0 C 202.01465 1.5715 200.7407 2.84544 199.1692 2.84544 C 197.5977 2.84544 196.32376 1.5715 196.32376 0.0 C 196.32376 -1.5715 197.5977 -2.84544 199.1692 -2.84544 C 200.7407 -2.84544 202.01465 -1.5715 202.01465 0.0 Z M 199.1692 0.0  " />
 </g>
 <g fill="#000">
 <path d=" M 227.62195 0.0 M 230.46739 0.0 C 230.46739 1.5715 229.19345 2.84544 227.62195 2.84544 C 226.05045 2.84544 224.7765 1.5715 224.7765 0.0 C 224.7765 -1.5715 226.05045 -2.84544 227.62195 -2.84544 C 229.19345 -2.84544 230.46739 -1.5715 230.46739 0.0 Z M 227.62195 0.0  " />
 </g>
 <g fill="#000">
 <path d=" M 256.07469 0.0 M 258.92014 0.0 C 258.92014 1.5715 257.6462 2.84544 256.07469 2.84544 C 254.50319 2.84544 253.22925 1.5715 253.22925 0.0 C 253.22925 -1.5715 254.50319 -2.84544 256.07469 -2.84544 C 257.6462 -2.84544 258.92014 -1.5715 258.92014 0.0 Z M 256.07469 0.0  " />
 </g>
 <g fill="#000">
 <path d=" M 312.98018 0.0 M 315.82562 0.0 C 315.82562 1.5715 314.55168 2.84544 312.98018 2.84544 C 311.40868 2.84544 310.13474 1.5715 310.13474 0.0 C 310.13474 -1.5715 311.40868 -2.84544 312.98018 -2.84544 C 314.55168 -2.84544 315.82562 -1.5715 315.82562 0.0 Z M 312.98018 0.0  " />
 </g>
 <g fill="#000">
 <path d=" M 341.43292 0.0 M 344.27837 0.0 C 344.27837 1.5715 343.00443 2.84544 341.43292 2.84544 C 339.86142 2.84544 338.58748 1.5715 338.58748 0.0 C 338.58748 -1.5715 339.86142 -2.84544 341.43292 -2.84544 C 343.00443 -2.84544 344.27837 -1.5715 344.27837 0.0 Z M 341.43292 0.0  " />
 </g>
 <g stroke="#00f" fill="#00f">
 <g stroke-width="0.8">
 <path d=" M 202.5167 -60.25298 C 213.39557 -71.13185 213.39557 -71.13185 224.77649 -59.75093  " fill="none"/>
 <g transform="matrix(-0.7071,0.7071,-0.7071,-0.7071,202.51671,-60.25299)">
 <g stroke-width="0.64">
 <g stroke-dasharray="none" stroke-dashoffset="0.0">
 <g stroke-linecap="round">
 <g stroke-linejoin="round">
 <path d=" M -1.55997 2.07996 C -1.42996 1.29997 0.0 0.12999 0.38998 0.0 C 0.0 -0.12999 -1.42996 -1.29997 -1.55997 -2.07996  " fill="none"/>
 </g>
 </g>
 </g>
 </g>
  </g>
 <g transform="translate(210.89555,-75.81435)">
 <g fill="#00f">
 <text style="stroke:none" transform="scale(1,-1) translate(2.5,0)" text-anchor="middle"  font-size="10"> 
<g fill="#00f">
 <g stroke="none"> 6</g> </g>
 </text> 
</g>
 </g>
 </g>
 </g>
 <g stroke="#00f" fill="#00f">
 <g stroke-width="0.8">
 <path d=" M 230.96944 -60.25298 C 241.84831 -71.13185 241.84831 -71.13185 253.22923 -59.75093  " fill="none"/>
 <g transform="matrix(-0.7071,0.7071,-0.7071,-0.7071,230.96945,-60.25299)">
 <g stroke-width="0.64">
 <g stroke-dasharray="none" stroke-dashoffset="0.0">
 <g stroke-linecap="round">
 <g stroke-linejoin="round">
 <path d=" M -1.55997 2.07996 C -1.42996 1.29997 0.0 0.12999 0.38998 0.0 C 0.0 -0.12999 -1.42996 -1.29997 -1.55997 -2.07996  " fill="none"/>
 </g>
 </g>
 </g>
 </g>
  </g>
 <g transform="translate(239.34828,-75.81435)">
 <g fill="#00f">
 <text style="stroke:none" transform="scale(1,-1) translate(2.5,0)" text-anchor="middle"  font-size="10"> 
<g fill="#00f">
 <g stroke="none"> 5</g> </g>
 </text> 
</g>
 </g>
 </g>
 </g>
 <g stroke="#00f" fill="#00f">
 <g stroke-width="0.8">
 <path d=" M 259.42218 -60.25298 C 270.30106 -71.13185 270.30106 -71.13185 281.68198 -59.75093  " fill="none"/>
 <g transform="matrix(-0.7071,0.7071,-0.7071,-0.7071,259.4222,-60.25299)">
 <g stroke-width="0.64">
 <g stroke-dasharray="none" stroke-dashoffset="0.0">
 <g stroke-linecap="round">
 <g stroke-linejoin="round">
 <path d=" M -1.55997 2.07996 C -1.42996 1.29997 0.0 0.12999 0.38998 0.0 C 0.0 -0.12999 -1.42996 -1.29997 -1.55997 -2.07996  " fill="none"/>
 </g>
 </g>
 </g>
 </g>
  </g>
 <g transform="translate(267.80104,-75.81435)">
 <g fill="#00f">
 <text style="stroke:none" transform="scale(1,-1) translate(2.5,0)" text-anchor="middle"  font-size="10"> 
<g fill="#00f">
 <g stroke="none"> 4</g> </g>
 </text> 
</g>
 </g>
 </g>
 </g>
 <g stroke="#00f" fill="#00f">
 <g stroke-width="0.8">
 <path d=" M 287.87492 -60.25298 C 298.7538 -71.13185 298.7538 -71.13185 310.13472 -59.75093  " fill="none"/>
 <g transform="matrix(-0.7071,0.7071,-0.7071,-0.7071,287.87494,-60.25299)">
 <g stroke-width="0.64">
 <g stroke-dasharray="none" stroke-dashoffset="0.0">
 <g stroke-linecap="round">
 <g stroke-linejoin="round">
 <path d=" M -1.55997 2.07996 C -1.42996 1.29997 0.0 0.12999 0.38998 0.0 C 0.0 -0.12999 -1.42996 -1.29997 -1.55997 -2.07996  " fill="none"/>
 </g>
 </g>
 </g>
 </g>
  </g>
 <g transform="translate(296.25377,-75.81435)">
 <g fill="#00f">
 <text style="stroke:none" transform="scale(1,-1) translate(2.5,0)" text-anchor="middle"  font-size="10"> 
<g fill="#00f">
 <g stroke="none"> 3</g> </g>
 </text> 
</g>
 </g>
 </g>
 </g>
 <g stroke="#00f" fill="#00f">
 <g stroke-width="0.8">
 <path d=" M 316.32767 -60.25298 C 327.20654 -71.13185 327.20654 -71.13185 338.58746 -59.75093  " fill="none"/>
 <g transform="matrix(-0.7071,0.7071,-0.7071,-0.7071,316.32768,-60.25299)">
 <g stroke-width="0.64">
 <g stroke-dasharray="none" stroke-dashoffset="0.0">
 <g stroke-linecap="round">
 <g stroke-linejoin="round">
 <path d=" M -1.55997 2.07996 C -1.42996 1.29997 0.0 0.12999 0.38998 0.0 C 0.0 -0.12999 -1.42996 -1.29997 -1.55997 -2.07996  " fill="none"/>
 </g>
 </g>
 </g>
 </g>
  </g>
 <g transform="translate(324.70653,-75.81435)">
 <g fill="#00f">
 <text style="stroke:none" transform="scale(1,-1) translate(2.5,0)" text-anchor="middle"  font-size="10"> 
<g fill="#00f">
 <g stroke="none"> 1</g> </g>
 </text> 
</g>
 </g>
 </g>
 </g>
 <g stroke="#00f" fill="#00f">
 <g stroke-width="0.8">
 <path d=" M 258.92014 -54.06003 C 270.30106 -42.67911 270.30106 -42.67911 281.17993 -53.55798  " fill="none"/>
 <g transform="matrix(0.7071,-0.7071,0.7071,0.7071,281.17992,-53.55797)">
 <g stroke-width="0.64">
 <g stroke-dasharray="none" stroke-dashoffset="0.0">
 <g stroke-linecap="round">
 <g stroke-linejoin="round">
 <path d=" M -1.55997 2.07996 C -1.42996 1.29997 0.0 0.12999 0.38998 0.0 C 0.0 -0.12999 -1.42996 -1.29997 -1.55997 -2.07996  " fill="none"/>
 </g>
 </g>
 </g>
 </g>
  </g>
 <g transform="translate(267.80104,-44.441)">
 <g fill="#00f">
 <text style="stroke:none" transform="scale(1,-1) translate(2.5,0)" text-anchor="middle"  font-size="10"> 
<g fill="#00f">
 <g stroke="none"> 2</g> </g>
 </text> 
</g>
 </g>
 </g>
 </g>
 <g fill="#fff">
 <path d=" M 284.52744 -56.90549 M 287.37288 -56.90549 C 287.37288 -55.33398 286.09894 -54.06004 284.52744 -54.06004 C 282.95593 -54.06004 281.68199 -55.33398 281.68199 -56.90549 C 281.68199 -58.47699 282.95593 -59.75093 284.52744 -59.75093 C 286.09894 -59.75093 287.37288 -58.47699 287.37288 -56.90549 Z M 284.52744 -56.90549  " />
 </g>
 <g fill="#000">
 <path d=" M 199.1692 -56.90549 M 202.01465 -56.90549 C 202.01465 -55.33398 200.7407 -54.06004 199.1692 -54.06004 C 197.5977 -54.06004 196.32376 -55.33398 196.32376 -56.90549 C 196.32376 -58.47699 197.5977 -59.75093 199.1692 -59.75093 C 200.7407 -59.75093 202.01465 -58.47699 202.01465 -56.90549 Z M 199.1692 -56.90549  " />
 </g>
 <g fill="#000">
 <path d=" M 227.62195 -56.90549 M 230.46739 -56.90549 C 230.46739 -55.33398 229.19345 -54.06004 227.62195 -54.06004 C 226.05045 -54.06004 224.7765 -55.33398 224.7765 -56.90549 C 224.7765 -58.47699 226.05045 -59.75093 227.62195 -59.75093 C 229.19345 -59.75093 230.46739 -58.47699 230.46739 -56.90549 Z M 227.62195 -56.90549  " />
 </g>
 <g fill="#000">
 <path d=" M 256.07469 -56.90549 M 258.92014 -56.90549 C 258.92014 -55.33398 257.6462 -54.06004 256.07469 -54.06004 C 254.50319 -54.06004 253.22925 -55.33398 253.22925 -56.90549 C 253.22925 -58.47699 254.50319 -59.75093 256.07469 -59.75093 C 257.6462 -59.75093 258.92014 -58.47699 258.92014 -56.90549 Z M 256.07469 -56.90549  " />
 </g>
 <g fill="#000">
 <path d=" M 312.98018 -56.90549 M 315.82562 -56.90549 C 315.82562 -55.33398 314.55168 -54.06004 312.98018 -54.06004 C 311.40868 -54.06004 310.13474 -55.33398 310.13474 -56.90549 C 310.13474 -58.47699 311.40868 -59.75093 312.98018 -59.75093 C 314.55168 -59.75093 315.82562 -58.47699 315.82562 -56.90549 Z M 312.98018 -56.90549  " />
 </g>
 <g fill="#000">
 <path d=" M 341.43292 -56.90549 M 344.27837 -56.90549 C 344.27837 -55.33398 343.00443 -54.06004 341.43292 -54.06004 C 339.86142 -54.06004 338.58748 -55.33398 338.58748 -56.90549 C 338.58748 -58.47699 339.86142 -59.75093 341.43292 -59.75093 C 343.00443 -59.75093 344.27837 -58.47699 344.27837 -56.90549 Z M 341.43292 -56.90549  " />
 </g>
 <path d=" M 270.30106 -93.89413  " fill="none"/>
 <g transform="translate(263.63437,-96.39413)">
 <g fill="#000">
 <text style="stroke:none" transform="scale(1,-1) translate(6.66669,0)" text-anchor="middle"  font-size="10"> 
<g fill="#000">
 <g stroke="none"> (b)</g> </g>
 </text> 
</g>
 </g>
 </g>
 </g>
 
                                                                  </g> 
</svg> 
